<svg width="458" height="76" viewBox="0 0 458 76" fill="none" xmlns="http://www.w3.org/2000/svg">
<path d="M0.343359 73.1714H33.0434C49.6434 73.1714 58.3434 65.7714 58.3434 54.2714C58.3434 46.2714 54.5434 38.7714 45.1434 36.7714C50.5434 35.0714 54.5434 29.4714 54.5434 21.4714C54.5434 11.5714 45.1434 4.17138 30.9434 4.17138H0.343359V73.1714ZM17.1434 29.8714V18.9714H27.9434C32.5434 18.9714 37.4434 20.1714 37.4434 24.4714C37.4434 28.5714 33.3434 29.8714 29.1434 29.8714H17.1434ZM17.1434 58.3714V44.7714H31.1434C37.7434 44.7714 40.9434 47.1714 40.9434 51.5714C40.9434 56.2714 36.8434 58.3714 30.8434 58.3714H17.1434ZM92.691 74.2714C108.091 74.2714 120.591 61.7714 120.591 46.2714C120.591 30.8714 108.091 18.3714 92.691 18.3714C77.191 18.3714 64.591 30.8714 64.591 46.2714C64.591 61.7714 77.191 74.2714 92.691 74.2714ZM92.691 58.2714C85.991 58.2714 80.591 52.9714 80.591 46.2714C80.591 39.6714 85.991 34.3714 92.691 34.3714C99.291 34.3714 104.591 39.6714 104.591 46.2714C104.591 52.9714 99.291 58.2714 92.691 58.2714ZM129.412 73.1714H145.412V45.4714C145.412 38.4714 150.012 34.0714 156.612 34.0714C163.212 34.0714 167.712 38.3714 167.712 45.4714V73.1714H183.712V45.4714C183.712 29.7714 171.912 18.0714 156.612 18.0714C141.312 18.0714 129.412 29.7714 129.412 45.4714V73.1714ZM220.093 74.1714C229.993 74.1714 238.693 71.7714 244.193 65.7714L232.093 56.4714C230.593 58.5714 225.093 59.9714 221.493 59.9714C215.993 59.8714 211.093 56.4714 210.193 52.8714H243.993C249.493 32.5714 236.793 17.9714 218.793 17.8714C202.093 17.8714 192.693 31.5714 192.693 45.8714C192.693 59.8714 203.893 74.1714 220.093 74.1714ZM210.193 39.1714C210.193 36.1714 212.993 31.9714 219.293 31.9714C226.293 31.9714 228.693 36.6714 228.293 39.1714H210.193ZM279.093 75.1714C287.693 75.1714 295.593 71.1714 300.293 65.0714L288.893 53.8714C287.093 56.9714 283.293 59.1714 279.193 59.1714C272.393 59.1714 266.993 53.6714 266.993 46.9714C266.993 39.5714 272.893 34.7714 279.193 34.7714C282.593 34.7714 286.593 36.3714 288.693 40.0714L300.193 28.8714C295.493 22.7714 287.693 18.7714 279.093 18.7714C264.093 18.7714 250.993 30.7714 250.993 46.9714C250.993 62.4714 263.593 75.1714 279.093 75.1714ZM332.609 74.2714C348.009 74.2714 360.509 61.7714 360.509 46.2714C360.509 30.8714 348.009 18.3714 332.609 18.3714C317.109 18.3714 304.509 30.8714 304.509 46.2714C304.509 61.7714 317.109 74.2714 332.609 74.2714ZM332.609 58.2714C325.909 58.2714 320.509 52.9714 320.509 46.2714C320.509 39.6714 325.909 34.3714 332.609 34.3714C339.209 34.3714 344.509 39.6714 344.509 46.2714C344.509 52.9714 339.209 58.2714 332.609 58.2714ZM394.13 73.1714V56.7714C389.03 56.7714 385.73 52.8714 385.73 47.3714V0.171385H369.73V47.7714C369.73 62.3714 379.83 73.1714 394.13 73.1714ZM428.393 74.1714C438.293 74.1714 446.993 71.7714 452.493 65.7714L440.393 56.4714C438.893 58.5714 433.393 59.9714 429.793 59.9714C424.293 59.8714 419.393 56.4714 418.493 52.8714H452.293C457.793 32.5714 445.093 17.9714 427.093 17.8714C410.393 17.8714 400.993 31.5714 400.993 45.8714C400.993 59.8714 412.193 74.1714 428.393 74.1714ZM418.493 39.1714C418.493 36.1714 421.293 31.9714 427.593 31.9714C434.593 31.9714 436.993 36.6714 436.593 39.1714H418.493Z" fill="white"/>
</svg>
